<?xml version="1.0" encoding="utf-8"?>
<!-- Generator: Adobe Illustrator 15.0.0, SVG Export Plug-In  -->
<!DOCTYPE svg PUBLIC "-//W3C//DTD SVG 1.1//EN" "http://www.w3.org/Graphics/SVG/1.1/DTD/svg11.dtd" [
	<!ENTITY ns_flows "http://ns.adobe.com/Flows/1.0/">
]>
<svg version="1.1"
	 xmlns="http://www.w3.org/2000/svg" xmlns:xlink="http://www.w3.org/1999/xlink" xmlns:a="http://ns.adobe.com/AdobeSVGViewerExtensions/3.0/"
	 x="0px" y="0px" width="120px" height="120px" viewBox="0 0 120 120" overflow="visible" enable-background="new 0 0 120 120"
	 xml:space="preserve">
<defs>
</defs>
<circle id="path4758_1_" fill="#FFFFFF" cx="60" cy="60" r="60"/>
<path id="path4648_1_" opacity="0.96" fill="#FFFFFF" enable-background="new    " d="M110,60c0,27.614-22.386,50-50,50
	S10,87.614,10,60s22.386-50,50-50S110,32.386,110,60z"/>
<path id="path4648-3_3_" opacity="0.96" fill="#44AF69" enable-background="new    " d="M95.355,24.645
	C104.732,34.021,110,46.739,110,60s-5.268,25.979-14.645,35.355L60,60L95.355,24.645z"/>
<path id="path4648-7_1_" opacity="0.96" fill="#FCAB10" enable-background="new    " d="M24.645,24.645
	c19.526-19.526,51.185-19.526,70.711,0L60,60L24.645,24.645z"/>
<path id="path4648-3_2_" opacity="0.96" fill="#E02C2C" enable-background="new    " d="M24.425,94.709
	C15.048,85.334,9.779,72.614,9.78,59.354c0-13.262,5.267-25.978,14.645-35.355L59.78,59.354L24.425,94.709z"/>
<path id="path4503_1_" fill="#FFFFFF" d="M101.92,60c0,22.92-18.58,41.5-41.5,41.5c-22.92,0-41.5-18.58-41.5-41.5
	s18.58-41.5,41.5-41.5C83.34,18.5,101.92,37.08,101.92,60z"/>
<path id="path4589-1-2_1_" d="M73.449,92.678c-5.229,0.995-6.154,2.576-6.315,7.663c1.271,0.812,2.087,2.106,2.579,3.602
	c1.354,0.521,3.351,0.952,6.334,0.952c7.635,0,8.952-2.802,8.952-2.802c0.005-0.346-0.009-0.66-0.011-0.858
	c-0.088-5.839-0.812-7.502-6.348-8.557c0,0-0.777,1.048-2.594,1.048C74.229,93.726,73.449,92.678,73.449,92.678L73.449,92.678z"/>
<path id="path4583-0-7_1_" d="M76.066,92.213c2.619,0,4.741-2.127,4.741-4.749c0-2.623-0.697-4.749-4.741-4.749
	c-4.043,0-4.74,2.126-4.74,4.749C71.326,90.086,73.449,92.213,76.066,92.213z"/>
<path id="path4583-0-7-7_1_" d="M43.934,92.213c2.618,0,4.741-2.127,4.741-4.749c0-2.623-0.697-4.749-4.741-4.749
	c-4.043,0-4.74,2.126-4.74,4.749C39.193,90.086,41.315,92.213,43.934,92.213z"/>
<path id="path4589-1-2-8_1_" d="M41.358,92.678c-5.476,1.042-6.245,2.682-6.346,8.367c-0.017,0.437-0.009,0.678-0.013,1.048
	c0,0,1.318,2.802,8.953,2.802c2.928,0,4.916-0.415,6.268-0.923c0.52-1.463,1.428-2.733,2.647-3.584
	c-0.158-5.122-1.074-6.712-6.318-7.71c0,0-0.78,1.048-2.597,1.048S41.358,92.678,41.358,92.678z"/>
<path id="path4583-0-7-9_1_" d="M60,99.889c2.618,0,4.74-2.126,4.74-4.749c0-2.622-0.696-4.749-4.74-4.749
	c-4.044,0-4.741,2.127-4.741,4.749C55.26,97.763,57.382,99.889,60,99.889z"/>
<path id="path4589-1-2-9_1_" d="M68.943,108.911c-0.088-5.839-0.812-7.503-6.348-8.557c0,0-0.779,1.047-2.596,1.047
	c-1.816,0-2.596-1.047-2.596-1.047c-5.476,1.042-6.244,2.681-6.344,8.366c-0.019,0.437-0.009,0.678-0.013,1.049
	c0,0,1.318,2.801,8.953,2.801c7.635,0,8.954-2.801,8.954-2.801C68.957,109.424,68.945,109.107,68.943,108.911L68.943,108.911z"/>
<path id="A_1_" d="M65.786,60c0.003,3.195-2.586,5.788-5.782,5.791c-3.195,0.002-5.788-2.586-5.791-5.782c0-0.003,0-0.006,0-0.009
	c-0.002-3.196,2.586-5.788,5.782-5.791c3.196-0.002,5.788,2.586,5.791,5.782C65.786,59.994,65.786,59.997,65.786,60z"/>
<path id="rect173_1_" d="M56.459,60.846l22.243-23.671l7.083-1.227l-1.656,6.996L59.146,63.701l-2.713-2.885L56.459,60.846z"/>
</svg>
